<svg width="2869" height="2122" viewBox="0 0 2869 2122" fill="none" xmlns="http://www.w3.org/2000/svg">
<g filter="url(#filter0_d_993_3)">
<path d="M1434.5 0.993835L1405.91 12.0079L264.113 497.554L4.51367 606.188L155.688 667.635V1682.09C101.155 1722.32 64.3438 1795.71 64.3438 1881.5C64.3438 1943 83.5912 2001.98 117.852 2045.46C152.112 2088.95 198.58 2113.38 247.031 2113.38C295.483 2113.38 341.95 2088.95 376.211 2045.46C410.471 2001.98 429.719 1943 429.719 1881.5C429.719 1795.71 392.907 1722.32 338.375 1682.09V747.631L521.063 823.571V1417.75C521.063 1512.82 566.734 1591.66 620.993 1646.15C675.251 1700.29 742.663 1738.55 823.593 1772.87C985.637 1841.27 1199.2 1881.5 1434.5 1881.5C1669.8 1881.5 1883.36 1841.39 2045.41 1772.75C2126.34 1738.55 2193.75 1700.29 2248.01 1646.03C2302.27 1591.66 2347.94 1512.82 2347.94 1417.75V823.571L2604.89 714.821L2864.49 606.188L2604.8 497.438L1463 12.0079L1434.5 0.993835ZM1434.5 243.883L2290.85 606.188L1434.5 968.492L578.152 606.188L1434.5 243.883ZM703.75 903.336L1406 1200.37L1434.5 1211.27L1463.09 1200.25L2165.25 903.22V1417.75C2165.25 1418.91 2165.62 1432.36 2136.66 1461.23C2107.79 1490.21 2056 1526.73 1988.23 1555.48C1852.85 1612.64 1653.27 1649.63 1434.5 1649.63C1215.73 1649.63 1016.15 1612.76 880.683 1555.37C813.089 1526.73 761.205 1490.1 732.341 1461.23C703.293 1432.24 703.75 1418.91 703.75 1417.75V903.22V903.336Z" fill="white"/>
</g>
<defs>
<filter id="filter0_d_993_3" x="0.513672" y="0.993835" width="2867.97" height="2120.38" filterUnits="userSpaceOnUse" color-interpolation-filters="sRGB">
<feFlood flood-opacity="0" result="BackgroundImageFix"/>
<feColorMatrix in="SourceAlpha" type="matrix" values="0 0 0 0 0 0 0 0 0 0 0 0 0 0 0 0 0 0 127 0" result="hardAlpha"/>
<feOffset dy="4"/>
<feGaussianBlur stdDeviation="2"/>
<feComposite in2="hardAlpha" operator="out"/>
<feColorMatrix type="matrix" values="0 0 0 0 0 0 0 0 0 0 0 0 0 0 0 0 0 0 0.25 0"/>
<feBlend mode="normal" in2="BackgroundImageFix" result="effect1_dropShadow_993_3"/>
<feBlend mode="normal" in="SourceGraphic" in2="effect1_dropShadow_993_3" result="shape"/>
</filter>
</defs>
</svg>
