<svg width="734" height="734" viewBox="0 0 734 734" fill="none" xmlns="http://www.w3.org/2000/svg">
<path fill-rule="evenodd" clip-rule="evenodd" d="M367 30.5834C181.206 30.5834 30.583 181.206 30.583 367C30.583 552.794 181.206 703.417 367 703.417C552.793 703.417 703.416 552.794 703.416 367C703.416 181.206 552.793 30.5834 367 30.5834ZM512.821 310.115C515.506 307.046 517.55 303.47 518.833 299.599C520.116 295.729 520.612 291.64 520.292 287.575C519.971 283.509 518.841 279.549 516.967 275.927C515.094 272.305 512.515 269.094 509.382 266.483C506.249 263.872 502.626 261.915 498.725 260.725C494.824 259.535 490.725 259.138 486.669 259.556C482.612 259.973 478.68 261.198 475.104 263.158C471.528 265.118 468.38 267.774 465.845 270.968L334.337 428.748L266.289 360.669C260.521 355.098 252.795 352.016 244.776 352.085C236.758 352.155 229.087 355.371 223.416 361.042C217.746 366.712 214.53 374.383 214.46 382.402C214.39 390.421 217.473 398.146 223.044 403.914L314.794 495.664C317.799 498.667 321.397 501.011 325.358 502.547C329.319 504.083 333.557 504.776 337.801 504.584C342.045 504.391 346.202 503.316 350.008 501.427C353.814 499.539 357.184 496.878 359.904 493.615L512.821 310.115Z" fill="#98ADC7"/>
</svg>
