<svg width="1257" height="1257" viewBox="0 0 1257 1257" fill="none" xmlns="http://www.w3.org/2000/svg">
<g clip-path="url(#clip0_995_2)">
<path d="M628.5 0C281.389 0 0 281.389 0 628.5C0 975.611 281.389 1257 628.5 1257C975.611 1257 1257 975.611 1257 628.5C1257 281.389 975.611 0 628.5 0ZM839.95 196.327C858.375 196.472 876.263 203.268 889.777 216.783L994.369 321.334C1023.28 350.246 1021.3 398.958 990.029 430.303C958.683 461.649 909.893 463.513 881.062 434.681L776.51 330.13C747.598 301.298 749.619 252.43 780.888 221.162C797.501 204.508 819.07 196.162 839.95 196.327V196.327ZM667.622 334.468L876.764 543.57L536.884 883.369L327.742 674.229L667.622 334.468ZM273.456 713.828L494.06 934.433L218.216 989.673L273.456 713.828Z" fill="#333333"/>
</g>
<defs>
<clipPath id="clip0_995_2">
<rect width="1257" height="1257" fill="white"/>
</clipPath>
</defs>
</svg>
