<svg width="551" height="551" viewBox="0 0 551 551" fill="none" xmlns="http://www.w3.org/2000/svg">
<circle cx="275.473" cy="275.473" r="260.473" stroke="#333333" stroke-width="30"/>
<path d="M394.26 139.734H156.714C143.214 139.734 130.267 145.097 120.721 154.643C111.174 164.189 105.812 177.137 105.812 190.637V360.312C105.812 373.812 111.174 386.76 120.721 396.306C130.267 405.852 143.214 411.215 156.714 411.215H394.26C407.76 411.215 420.707 405.852 430.253 396.306C439.799 386.76 445.162 373.812 445.162 360.312V190.637C445.162 177.137 439.799 164.189 430.253 154.643C420.707 145.097 407.76 139.734 394.26 139.734V139.734ZM382.891 173.669L275.487 254.265L168.082 173.669H382.891ZM394.26 377.28H156.714C152.214 377.28 147.898 375.492 144.716 372.31C141.534 369.128 139.747 364.812 139.747 360.312V194.879L265.306 289.049C268.243 291.251 271.816 292.442 275.487 292.442C279.158 292.442 282.73 291.251 285.667 289.049L411.227 194.879V360.312C411.227 364.812 409.44 369.128 406.258 372.31C403.076 375.492 398.76 377.28 394.26 377.28Z" fill="#333333"/>
</svg>
