<svg width="551" height="551" viewBox="0 0 551 551" fill="none" xmlns="http://www.w3.org/2000/svg">
<circle cx="275.473" cy="275.527" r="260.473" stroke="#333333" stroke-width="30"/>
<path d="M340.935 469.158C336.345 469.158 331.942 467.37 328.697 464.188C325.451 461.006 323.628 456.69 323.628 452.19V408.075C324.165 403 323.612 397.872 322.002 393.02C320.392 388.168 317.762 383.702 314.282 379.909C312.127 377.618 310.658 374.789 310.035 371.733C309.412 368.678 309.659 365.513 310.749 362.585C311.84 359.658 313.732 357.082 316.217 355.14C318.703 353.197 321.686 351.963 324.839 351.573C367.068 346.652 406.009 333.418 406.009 261.645C406.022 248.242 401.987 235.135 394.413 223.977C387.424 213.705 384.872 201.136 387.317 189.024C388.877 181.122 388.877 173.001 387.317 165.1C374.358 169.395 362.156 175.634 351.146 183.594C349.064 185.044 346.681 186.023 344.168 186.463C341.654 186.903 339.073 186.793 336.608 186.139C305.375 177.487 272.307 177.487 241.074 186.139C238.609 186.793 236.028 186.903 233.514 186.463C231.001 186.023 228.618 185.044 226.536 183.594C215.459 175.542 203.127 169.297 190.019 165.1C188.373 172.993 188.373 181.131 190.019 189.024C192.287 201.289 189.62 213.939 182.577 224.316C175.035 235.553 171.005 248.703 170.981 262.154C170.981 328.158 203.518 345.804 252.323 351.912C255.517 352.301 258.537 353.555 261.044 355.533C263.551 357.511 265.445 360.135 266.515 363.111C267.521 365.998 267.715 369.098 267.075 372.084C266.436 375.07 264.986 377.832 262.881 380.078C259.514 383.606 256.931 387.779 255.292 392.335C253.654 396.891 252.997 401.73 253.362 406.548V452.19C253.362 456.69 251.538 461.006 248.293 464.188C245.047 467.37 240.645 469.158 236.055 469.158C231.465 469.158 227.063 467.37 223.817 464.188C220.571 461.006 218.748 456.69 218.748 452.19V442.519C201.742 444.436 184.515 442.202 168.603 436.015C152.69 429.828 138.584 419.88 127.541 407.057C121.864 400.888 115.053 395.823 107.465 392.125C105.26 391.568 103.189 390.591 101.37 389.249C99.5503 387.907 98.0183 386.227 96.8612 384.305C95.7041 382.383 94.9445 380.256 94.6258 378.046C94.3071 375.836 94.4355 373.586 95.0037 371.425C95.5719 369.264 96.5687 367.233 97.9373 365.449C99.3059 363.666 101.019 362.164 102.98 361.029C104.941 359.895 107.11 359.15 109.364 358.838C111.619 358.525 113.914 358.651 116.118 359.208C129.431 363.963 141.327 371.894 150.732 382.284C168.039 399.252 185.346 414.183 218.229 408.075C217.651 398.965 219.006 389.836 222.209 381.266C186.557 372.443 135.675 347.331 135.675 262.493C135.629 242.397 141.651 222.738 152.982 205.991C155.086 202.9 155.892 199.131 155.232 195.472C151.734 177.156 153.718 158.24 160.943 141.006C161.925 138.708 163.41 136.65 165.295 134.978C167.179 133.307 169.416 132.063 171.846 131.334C177.731 129.637 198.845 126.244 238.824 151.695C271.187 144.06 304.937 144.06 337.3 151.695C377.279 126.244 398.393 129.468 404.105 131.334C406.535 132.063 408.772 133.307 410.656 134.978C412.541 136.65 414.026 138.708 415.008 141.006C422.247 158.296 424.231 177.271 420.719 195.641C420.365 197.296 420.351 199.004 420.678 200.665C421.005 202.325 421.666 203.906 422.623 205.313C433.987 222.107 440.01 241.831 439.93 261.984C439.93 348.01 389.394 372.952 353.396 380.757C356.567 389.862 357.861 399.494 357.203 409.093V452.19C357.211 456.52 355.531 460.688 352.506 463.842C349.482 466.997 345.342 468.898 340.935 469.158V469.158Z" fill="#333333"/>
</svg>
